<?xml version="1.0" encoding="utf-8"?>
<!-- Generator: Adobe Illustrator 19.0.0, SVG Export Plug-In . SVG Version: 6.00 Build 0)  -->
<svg version="1.1" id="layer" xmlns="http://www.w3.org/2000/svg" xmlns:xlink="http://www.w3.org/1999/xlink" x="0px" y="0px"
	 viewBox="-153 -46 652 652" style="enable-background:new -153 -46 652 652;" xml:space="preserve">
<style type="text/css">
	.st0{fill:#0089CF;}
	.st1{fill:#FFFFFF;}
</style>
<polygon class="st0" points="460.3,306.4 460.3,286.5 451.8,286.5 451.8,283.2 473.4,283.2 473.4,286.5 465.2,286.5 465.2,306.4 "/>
<polygon points="-86.5,349.2 -126.7,240.1 -102.5,240.1 -71.1,324.4 -40.7,240.1 -24.7,240.1 -63.6,349.2 "/>
<path d="M-11.4,240.1h22.5v67c0,12.1,2,19.9,6.2,24.2c4.2,3.9,9.5,5.9,16,5.9c6.5,0,11.4-2,15.4-5.9c3.9-3.9,5.6-11.4,5.6-22.5
	v-68.6h19.6v67c0,12.7-1.6,21.6-4.9,27.1c-3.3,5.6-7.8,9.8-13.7,13.1c-5.9,3.3-13.7,4.6-22.9,4.6c-9.1,0-16.7-1.3-23.2-4.2
	s-11.8-7.2-15.4-13.1c-3.9-5.9-5.6-15-5.6-27.4v-67H-11.4z"/>
<path class="st1" d="M105.2,322.4v2.9l1-0.7c-0.3-0.7-0.3-1.6-0.7-2.3H105.2z"/>
<path class="st0" d="M119.6,290.4c0-0.3,0.3-1,1-1c0.3,0,1,0.3,1,1c0,0.3-0.3,1-1,1C119.9,291.4,119.6,291,119.6,290.4"/>
<path class="st0" d="M173.5,316.8c-1.3-3.6-4.9-5.9-9.5-5.6c-2.6-4.9-6.9-2.6-8.2-1.3c1.3,1.3,2.3,1.6,3.9,2v1
	c-2.9,0-3.9-1.3-5.9-3.6c-1,7.2,7.5,9.8,10.1,3.9c3.9,0,6.5,1.6,7.2,4.2c1,2.6,0,5.2-1.3,6.5c-2.3,2.9-6.2,2.9-9.8,1
	c-2.3-1-4.6-3.3-6.5-5.6c-2.9-3.3-4.6-4.9-6.9-5.9c-1.3-0.7-2.6-1-3.6-1c-0.7,0-1.3-0.3-2.3-0.3c-0.7,0-1.3,0-2,0.3
	c-5.2,0.7-10.5,2.9-16.7,3.6H119c-2,2-3.9,3.6-5.6,4.9l-3.9,3.3l0,0c-1.6,1.6-2.6,2.3-2.6,2.3c0.3,3.6,0.7,5.6,0.7,8.8
	c0,2.9,0,4.2,0,5.2c0,1.3-0.3,2.3-0.7,3.3s-1,1.6-2.3,1.6c-1,0.3-3.6-1.6-4.6-0.3c-0.7,1,0,3.3,1,3.9h7.2c1-1.6,1.3-2.9,1.6-3.9
	c0.7-1,1-2.3,1.6-2.9c0.7-1,1-2,1.3-2.9c0-1,0.3-1.6,0.7-2.3c0.7-1.3,1.3-2.6,1.6-3.3c0-0.3,0.3-0.3,0.3-0.7c0.3,0.3,0.7,1,0.7,1.3
	c1.6,2.6,3.3,4.6,5.6,5.6c1,0.3,1.6,1,2,1.3c0.3,0.3,0.3,1.3,0.3,2.3c0,1-0.3,2-1.3,2.3c-1.6,0.7-3.9-1.6-4.9-0.3c-1,1,0,2.6,1,3.9
	h6.5c1.6-2.6,2.3-5.9,2.3-8.8s0-3.6-2-4.6c-0.7-0.3-1.3-2-1.6-3.3c0-0.3,0-0.3,0-1c2.9-1,6.5-2.9,10.1-5.6c0,0.7,0,1,0,1.6
	c0.7,4.2,1,7.8,4.2,10.8c1,1,1.6,1.6,1.6,2.3c0,0.3-0.3,1.6-1,2.3c-0.7,1.6-2.3,2.9-3.6,2.9c-1.6,0.3-3.3-2-4.6-0.7
	c-1,1,0.3,3.3,1,3.9h6.5c2.3-3.9,5.2-7.2,6.2-9.5c0.7-1.6,0.7-2.3-0.7-2.6c-2.3-1.3-2-3.9-1.3-6.9c0-0.7,0.3-1,0.7-1.6
	c1.6,4.6,3.9,8.8,8.8,10.1c1,0,2,0.7,2.3,1c0,0.3,0,1.3,0,2c-0.3,1.3-1,3.3-2.3,3.9c-1.3,1-4.2-2.3-5.2-0.3c-0.7,1.3,0.7,3.3,1,3.9
	h6.5c1.6-3.9,3.3-7.5,3.9-10.1c0.3-2.9,0.3-4.2-2-4.6c-1.3,0-2.3-0.7-2.6-2.3c-1-2.9-0.7-8.2-2.9-11.4c2.6,2.9,5.2,5.2,7.8,6.5
	c5.6,2.9,11.4,2,14-2C174.2,322.4,174.2,319.1,173.5,316.8"/>
<path class="st0" d="M228.7,240.7c-4.9-0.7-16,0.7-25.8,2.6c5.9-2.9,7.8-3.6,9.8-4.9c0.7-0.3,1-1.3,1-2.6c0-1.3-1.3-1.6-2.9-1.3
	c-1.6,0-4.9,1.3-9.1,2.6c-8.2,3.3-19.9,8.8-34,18.3c-12.4,8.5-20.6,15.7-29.4,24.5c-2.3,2.3-4.9,5.2-7.8,8.5c-0.3-0.7-0.7-1-1.6-0.7
	c3.3-7.2,3.6-7.5,5.2-11.4c0.7-2,0.3-3.3-0.3-4.2c-1-1.6-2.3-0.7-3.3,0c-1.3,1.6-1.6,2-4.6,5.6c3.6-12.1,5.6-13.1,8.8-19.9
	c0.3-1,0.3-2.3,0-3.3s-1-1.3-1.6-1c-1.3,0.7-1.6,1.3-4.2,4.2c3.6-6.9,8.5-15,9.1-16.3c0.7-1.3,1.3-1.6,0-3.9c-1.3-2-2.3-0.3-3.3,0.3
	c-0.7,0.3-2.3,2-4.6,4.9c5.2-9.8,10.1-14.4,11.1-16c1.3-2,1.3-2.3,0.3-4.6c-1-2-2.6-1-3.3,0c-3.6,3.6-3.6,2.6-9.8,10.1
	c3.3-8.5,8.8-15,10.8-18.3c1-1.3,1-2,0-4.9c-0.3-1.3-1.6-2-2.9-2c-1.6,0.7-3.3,1.6-6.5,4.6c-6.9,6.2-16,15-23.5,31
	c-7.2,15-8.8,29.1-8.8,38.9c0,15,3.9,28.1,7.5,36.6c0-0.3,0-0.7,0-1c-0.3-3.9,0.3-8.8,1.3-11.1c1.6-5.9,3.6-9.1,5.2-11.8l-2.9-3.9
	l3.9,1.3l-2.3-5.2c0,0,2.9,0.3,5.2,3.3c1.3-1.3,4.2-2.3,6.9-0.3c2,0,2.9,0.3,3.9,0.7c2,1.3,1.6,3.3,1.6,3.9c-1-1-4.2-2.9-7.2-0.3
	l5.9,2l-7.5,0.7v7.8l-9.1,8.2v2.9l6.2-5.6v2.9l-10.8,9.8v2.9l13.7-12.4l0,0l3.6-2.9l0,0c2-1.6,2.9-2.6,4.2-3.3c1.3-1,1.6,0,2,1.6
	c0.3,1.3,2,2.6,5.2-0.3c9.5-8.8,19.6-13.4,30.4-18.6c-5.9,3.9-16.3,9.8-19.9,13.7c-1.6,2,0,6.2,2.6,4.2c4.6-2.9,10.5-3.6,13.7-3.3
	c1.3,0,2.9-1,3.9-2.3c1-1,1-2.3-1-2.3c9.8-2.9,12.4-3.9,20.6-4.6c2.3,0,3.6-1.3,3.9-3.3c0.3-1.6-0.3-2.3-2.6-2.3
	c-2.3-0.3-6.5,0.3-10.8,1c9.5-3.9,20.9-6.2,30-8.8c2.9-1,3.3-1.6,3.3-3.3c0.3-2-1-2-4.2-2c-6.5,0.3-16.3,1-31.4,5.2
	c14-7.2,22.2-10.5,34.9-13.7c3.6-1,3.9-2,4.2-3.6c0.7-2-1-2-2.3-2c-2,0-6.2,0-15,2.6c8.5-3.6,18-8.2,24.5-10.1
	c1.3-0.7,2.3-1.3,2.3-2.9c0-1.3-0.3-1.3-1.6-1.3c-2.9,0-7.5,1-13.1,2.6c11.4-4.9,15-6.5,22.9-7.8c2.6-0.7,2.9-1.3,3.3-2.9
	C231.7,240.7,230.3,240.7,228.7,240.7 M114.1,279.9c0-1-0.7-1.6-1.3-2c1.6-4.2,3.3-7.2,6.5-11.8C116.4,272.1,115,277.3,114.1,279.9
	 M103.6,276.3c2.3-24.5,13.4-42.5,20.9-51C113.7,241.7,107.5,264.3,103.6,276.3 M144.4,283.5c14.4-13.7,34-28.1,58.8-34
	C182.3,256.7,153.6,276.3,144.4,283.5"/>
<polygon class="st0" points="260.1,263.9 251.6,240.4 256.8,240.4 263.3,258.7 269.9,240.4 273.5,240.4 265,263.9 "/>
<g>
	<path class="st0" d="M281,251.2h1c2,0,3.3-0.3,4.2-1.3c0.7-1,1.3-2,1.3-2.9s-0.3-1.6-1-2.3c-0.7-0.7-2-1-3.9-1H281V251.2z
		 M276.4,263.9v-23.2h8.8c1.6,0,3.3,0.3,3.9,0.7c1,0.3,1.6,1,2.3,2s0.7,2,0.7,2.9c0,1.3-0.3,2.6-1.3,3.9c-0.7,1.3-2,2.3-3.3,2.9
		l7.5,10.8h-5.9l-5.9-9.5h-2.6v9.5C280.6,263.9,276.4,263.9,276.4,263.9z"/>
</g>
<rect x="298.6" y="240.4" class="st0" width="4.9" height="23.2"/>
<g>
	<path class="st0" d="M305.5,267.9v-3.6c1.3,0.7,2.6,0.7,3.9,0.7c0.7,0,1,0,1.6-0.3c0.3-0.3,0.7-0.7,1-1c0.3-0.3,0.3-1.3,0.3-2.9
		v-20.6h4.9V260c0,2.3-0.3,3.9-0.7,4.9c-0.7,1-1.3,2-2.3,2.3c-1,0.7-2.6,1-4.2,1C308.1,268.5,306.8,268.5,305.5,267.9"/>
</g>
<polygon class="st0" points="322.8,263.9 322.8,240.4 337.8,240.4 337.8,243.7 327.7,243.7 327.7,250.2 336.2,250.2 336.2,253.5 
	327.7,253.5 327.7,260.7 338.5,260.7 338.5,263.9 "/>
<g>
	<path class="st0" d="M253.9,283.2h4.9v14.4c0,2.6,0.3,4.2,1.3,5.2c1,1,2,1.3,3.3,1.3s2.6-0.3,3.3-1.3s1.3-2.3,1.3-4.9v-14.7h4.2
		v14.4c0,2.6-0.3,4.6-1,5.9c-0.7,1.3-1.6,2-2.9,2.6c-1.3,0.7-2.9,1-4.9,1c-2,0-3.6-0.3-4.9-1c-1.3-0.7-2.6-1.6-3.3-2.9
		c-0.7-1.3-1.3-3.3-1.3-5.9V283.2z"/>
</g>
<polygon class="st0" points="278,306.4 278,283.2 282.3,283.2 293.1,299.2 293.1,283.2 297,283.2 297,306.4 292.7,306.4 282,290.7 
	282,306.4 "/>
<rect x="303.2" y="283.2" class="st0" width="4.9" height="23.2"/>
<polygon class="st0" points="319.8,306.4 311.3,283.2 316.6,283.2 323.1,301.2 329.6,283.2 333.2,283.2 324.7,306.4 "/>
<polygon class="st0" points="335.8,306.4 335.8,283.2 350.5,283.2 350.5,286.5 340.7,286.5 340.7,293 348.9,293 348.9,295.9 
	340.7,295.9 340.7,303.1 351.5,303.1 351.5,306.4 "/>
<g>
	<path class="st0" d="M360,293.7h1c2,0,3.3-0.3,4.2-1.3c0.7-1,1.3-2,1.3-2.9s-0.3-1.6-1-2.3s-2-1-3.9-1H360V293.7z M355.4,306.4
		v-23.2h8.8c1.6,0,3.3,0.3,3.9,0.7c1,0.3,1.6,1,2.3,2c0.7,1,0.7,2,0.7,2.9c0,1.3-0.3,2.6-1.3,3.9c-0.7,1.3-2,2.3-3.3,2.6l7.5,10.8
		h-5.9l-5.9-9.5h-2.6v9.5h-4.2V306.4z"/>
	<path class="st0" d="M375.7,306.4v-3.9c2,0.7,3.3,1.3,4.2,1.3c1,0,1.6,0.3,2.6,0.3c1.3,0,2.3-0.3,2.9-1s1-1.3,1-2.3
		c0-0.7-0.3-1.3-0.7-1.6c-0.3-0.7-1.3-1.3-2.6-2l-1.6-1c-2.3-1.3-3.9-2.3-4.6-3.6c-0.7-1-1.3-2.3-1.3-3.6c0-1.6,0.7-3.3,2-4.6
		c1.3-1.3,3.3-2,5.9-2c2,0,3.9,0.3,6.2,0.7v3.6c-2.3-1-4.2-1.3-5.9-1.3c-1.3,0-2,0.3-2.6,0.7c-0.7,0.7-1,1-1,2c0,0.7,0.3,1,0.7,1.6
		c0.3,0.3,1.3,1,2.6,2l1.6,1c2.6,1.3,4.2,2.6,4.9,3.6s1,2.3,1,3.6c0,2-0.7,3.6-2.3,4.9c-1.3,1.3-3.9,2-6.9,2
		C380.6,307,378.3,306.7,375.7,306.4"/>
</g>
<rect x="395.6" y="283.2" class="st0" width="4.9" height="23.2"/>
<polygon class="st0" points="410.6,306.4 410.6,286.5 402.1,286.5 402.1,283.2 423.7,283.2 423.7,286.5 415.2,286.5 415.2,306.4 "/>
<polygon class="st0" points="425.7,306.4 425.7,283.2 440.4,283.2 440.4,286.5 430.2,286.5 430.2,293 438.7,293 438.7,295.9 
	430.2,295.9 430.2,303.1 441.3,303.1 441.3,306.4 "/>
<rect x="445.3" y="283.2" class="st0" width="4.9" height="23.2"/>
<path class="st0" d="M258.8,339.7h7.2l-3.6-9.1L258.8,339.7z M251.6,349.2l9.1-23.2h4.9l9.1,23.2h-4.9l-2.3-6.2h-9.8l-2.3,6.2H251.6
	z"/>
<polygon class="st0" points="277.7,349.2 277.7,325.7 283.9,325.7 289.8,342.3 295.3,325.7 301.2,325.7 301.2,349.2 296.6,349.2 
	296.6,331.5 290.8,347.6 286.9,347.6 281.3,331.2 281.3,349.2 "/>
<g>
	<path class="st0" d="M305.8,348.9v-3.9c2,0.7,3.3,1.3,3.9,1.3c1,0,1.6,0.3,2.6,0.3c1.3,0,2.3-0.3,2.9-1c0.7-0.7,1-1.3,1-2.3
		c0-0.7-0.3-1.3-0.7-1.6c-0.3-0.7-1.3-1.3-2.6-2l-1.6-1c-2.3-1.3-3.9-2.3-4.6-3.6c-0.7-1-1.3-2.3-1.3-3.6c0-1.6,0.7-3.3,2-4.6
		c1.3-1.3,3.3-2,5.9-2c2,0,3.9,0.3,6.2,0.7v3.6c-2.3-1-4.2-1.3-5.9-1.3c-1.3,0-2,0.3-2.6,0.7c-0.7,0.7-1,1-1,2c0,0.7,0.3,1,0.7,1.6
		c0.3,0.3,1.3,1,2.6,2l1.6,1c2.6,1.3,4.2,2.6,4.9,3.9c0.7,1,1,2.3,1,3.6c0,2-0.7,3.6-2.3,4.9c-1.3,1.3-3.9,2-6.9,2
		C310.7,349.5,308.4,349.5,305.8,348.9"/>
</g>
<polygon class="st0" points="329.6,349.2 329.6,328.9 321.5,328.9 321.5,325.7 343,325.7 343,328.9 334.5,328.9 334.5,349.2 "/>
<polygon class="st0" points="345,349.2 345,325.7 359.7,325.7 359.7,328.9 349.9,328.9 349.9,335.5 358.1,335.5 358.1,338.7 
	349.9,338.7 349.9,345.9 360.7,345.9 360.7,349.2 "/>
<g>
	<path class="st0" d="M368.8,336.4h1c2,0,3.3-0.3,4.2-1.3c0.7-1,1-2,1-2.9s-0.3-1.6-1-2.3c-0.7-0.7-2-1-3.9-1h-1.6v7.5H368.8z
		 M364.3,349.2V326h8.8c1.6,0,3.3,0.3,4.2,0.7s1.6,1,2.3,2s1,2,1,2.9c0,1.3-0.3,2.6-1.3,3.9c-0.7,1.3-2,2.3-3.3,2.9l7.5,10.8h-5.9
		l-5.9-9.5h-2.6v9.5C369.2,349.2,364.3,349.2,364.3,349.2z"/>
	<path class="st0" d="M390.7,345.9h3.6c2,0,3.3-0.3,4.2-1c1-0.7,1.6-1.6,2.3-2.9s1-2.9,1-4.6c0-1.6-0.3-3.3-1-4.2
		c-0.7-1.3-1.3-2.3-2.3-2.9c-1-0.7-2.6-1-5.2-1h-2.9v16.7H390.7z M385.8,349.2V326h10.1c2.6,0,4.9,0.3,6.2,1.3
		c1.6,1,2.6,2.3,3.6,3.9c1,1.6,1.3,3.6,1.3,6.2c0,2.3-0.3,4.2-1.3,6.2c-1,2-2,3.3-3.6,4.2s-3.9,1.6-6.5,1.6h-9.8V349.2z"/>
</g>
<path class="st0" d="M414.6,339.7h7.2l-3.6-9.1L414.6,339.7z M407.4,349.2l9.1-23.2h4.9l9.1,23.2h-4.9l-2.3-6.2h-9.8l-2.3,6.2H407.4
	z"/>
<polygon class="st0" points="432.8,349.2 432.8,325.7 439.4,325.7 444.9,342.3 450.8,325.7 456.4,325.7 456.4,349.2 451.8,349.2 
	451.8,331.5 446.2,347.6 442.3,347.6 436.8,331.2 436.8,349.2 "/>
</svg>
